# xmcd
#
# Track frame offsets:
# 150
# 20279
# 35367
# 47870
# 72560
# 91886
# 103914
# 123444
# 143908
# 170139
# 188122
# 199766
# 224494
# 234313
# 247781
#
# Disc length: 3609 seconds
#
#
# Revision: 1
# Processed by: cddbd v1.5.1PL0 Copyright (c) Steve Scherf et al.
# Submitted via: FreeRIP 2.51 
#
DISCID=d80e170f
DTITLE=Various Artist - Heart Of The Blues
DYEAR=1996
DGENRE=Blues
TTITLE0=Diane Schuur and B.B. King - I Can't Stop Loving You
TTITLE1=Gary Moore - Parisienne Walkways
TTITLE2=Muddy Waters - I'm Your Hoochie Coochie Man
TTITLE3=Johnny Winter - Rain
TTITLE4=Glenn Frey - Smuggler's Blues
TTITLE5=John Lee Hooker - Boom Boom
TTITLE6=Ted Hawkins - Strange Conversation
TTITLE7=The Commitments - Try A Little Tenderness
TTITLE8=Steppenwolf - The Pusher
TTITLE9=Robbie Robertson - Somewhere Down The Crazy River
TTITLE10=Etta James - I'd Rather Go Blind
TTITLE11=Robben Ford and The Blue Line - I'm A Real Man
TTITLE12=Chuck Berry - Worried Life Blues
TTITLE13=Koko Taylor - Wang Dang Doodle
TTITLE14=B.B. King - The Thrill Is Gone
EXTD=YEAR: 1996
EXTT0=
EXTT1=
EXTT2=
EXTT3=
EXTT4=
EXTT5=
EXTT6=
EXTT7=
EXTT8=
EXTT9=
EXTT10=
EXTT11=
EXTT12=
EXTT13=
EXTT14=
PLAYORDER=
